<?xml version="1.0" encoding="UTF-8" standalone="no"?>
<!-- Created with Inkscape (http://www.inkscape.org/) -->

<svg
   width="191.53366mm"
   height="53.230045mm"
   viewBox="0 0 191.53366 53.230045"
   version="1.1"
   id="svg1"
   xmlns="http://www.w3.org/2000/svg"
   xmlns:svg="http://www.w3.org/2000/svg">
  <defs
     id="defs1">
    <linearGradient
       id="svgi_r_1e___Gradient2"
       gradientUnits="userSpaceOnUse"
       x1="1539.55"
       y1="683.96997"
       x2="1314.34"
       y2="494.20499"
       gradientTransform="matrix(0.26458333,0,0,0.26458333,-103.24686,-54.280321)">
      <stop
         class="stop0"
         offset="0"
         stop-opacity="1"
         stop-color="rgb(118,43,234)"
         id="stop3" />
      <stop
         class="stop1"
         offset="1"
         stop-opacity="1"
         stop-color="rgb(35,69,241)"
         id="stop4" />
    </linearGradient>
    <linearGradient
       id="svgi_r_1e___Gradient1"
       gradientUnits="userSpaceOnUse"
       x1="502.29501"
       y1="778.35901"
       x2="183.81799"
       y2="516.35901"
       gradientTransform="matrix(0.26458333,0,0,0.26458333,-103.24686,-54.280321)">
      <stop
         class="stop0"
         offset="0"
         stop-opacity="1"
         stop-color="rgb(113,46,234)"
         id="stop1" />
      <stop
         class="stop1"
         offset="1"
         stop-opacity="1"
         stop-color="rgb(18,74,244)"
         id="stop2" />
    </linearGradient>
  </defs>
  <g
     id="layer1"
     transform="translate(-9.2331628,-121.88498)">
    <g
       id="g1"
       transform="matrix(0.40019708,0,0,0.40019708,36.233964,109.60226)">
      <path
         fill="#07142e"
         d="m 72.634909,61.977859 31.606591,-0.01402 c 5.75787,-0.01005 12.58623,-0.431536 18.18164,0.538692 13.6144,2.360612 20.01943,18.484585 12.52908,29.704505 -1.20332,1.802607 -2.86623,3.083719 -4.54422,4.409811 0.46778,0.231775 0.93054,0.473075 1.38853,0.7239 10.54471,5.804953 11.05059,19.091003 5.72665,28.696973 -2.53577,3.70125 -8.1034,8.09942 -12.68545,8.64314 -13.56519,1.60999 -27.793951,0.25691 -41.495928,0.68924 -3.55891,0.11245 -7.89596,0.0833 -11.432645,-0.11404 -0.332053,-4.86939 -0.04815,-13.25324 -0.05027,-18.34806 l -0.01191,-37.302274 c -0.0016,-5.076031 -0.05821,-11.733477 -0.0598,-16.919045 -2.65e-4,-0.410369 0.472545,-0.52758 0.847725,-0.708819 z m 49.399821,55.728391 c 1.43934,-1.7399 2.21351,-3.4462 1.97565,-5.77506 -0.17542,-1.7989 -1.08241,-3.44673 -2.50852,-4.55745 -1.04193,-0.80115 -2.27197,-1.32159 -3.57267,-1.51183 -2.06269,-0.30744 -10.88548,-0.24474 -13.37468,-0.16113 -4.588937,0.15373 -11.274164,-0.20928 -15.672862,0.0947 l -0.06932,13.98773 18.487762,0.0352 c 4.18544,0.006 11.56176,0.76385 14.73464,-2.11217 z m -1.46896,-28.342958 c 2.28864,-3.234267 2.58471,-7.893315 -0.95515,-10.356586 -0.89561,-0.619125 -1.92537,-1.017587 -3.00461,-1.162314 -1.72852,-0.235215 -7.25461,-0.109538 -9.19586,-0.106363 l -18.601262,0.02805 -0.02619,13.576565 16.997092,-0.01429 c 4.21085,0.01164 11.71998,0.843492 14.78598,-1.96506 z"
         id="path5"
         style="display:block;stroke-width:0.264583" />
      <path
         fill="#07142e"
         d="m -12.124097,59.838438 c 8.3716816,-0.534194 14.0520211,4.659048 21.0132085,8.505825 3.0308025,1.675077 8.0052335,4.478866 10.1298375,7.123377 2.32066,2.928408 3.381904,6.659298 2.950369,10.370608 -0.596371,4.931833 -3.036888,7.789598 -6.708511,10.706629 2.939786,1.697831 5.267854,3.408627 7.030244,6.402913 2.071952,3.5859 2.62255,7.85178 1.528762,11.84619 -1.951037,7.14904 -7.726097,9.77821 -13.52206,13.12334 L 0.23300328,133.70931 C -11.097778,140.3522 -12.64903,138.99119 -23.809684,132.35835 c -4.857221,-2.88661 -10.074539,-5.82163 -14.90636,-8.8482 -0.358775,-12.54522 0.01667,-25.163196 -0.161925,-37.715029 -0.05741,-4.018227 -0.05847,-8.094927 0.01984,-12.111302 1.994164,-1.663435 6.385983,-4.080139 8.742627,-5.385329 5.718439,-3.167063 11.415977,-7.58481 17.991401,-8.460052 z m -10.779124,55.560912 c 1.681956,1.46976 10.513483,7.16836 12.311326,6.68629 3.4411713,-0.92234 11.56546702,-6.05314 14.8875753,-8.0018 1.7756187,-0.96626 4.9061687,-2.61197 3.3382479,-5.18239 C 5.5323428,105.45578 -7.862982,100.58903 -9.3128987,97.92706 -8.6289508,95.66011 4.8817324,90.359183 6.164697,87.270173 7.1119053,84.989729 1.0966033,81.598829 -0.55942379,80.786823 -3.6023967,79.294573 -8.4395091,75.354398 -11.694678,75.650202 c -3.71475,1.743605 -7.830608,4.298157 -11.455135,6.373813 0.459052,10.803995 0.255058,22.479265 0.246592,33.375335 z"
         id="path6"
         style="display:block;stroke-width:0.264583" />
      <path
         fill="url(#svgi_r_1e___Gradient2)"
         d="m 256.20282,61.88843 c 1.60338,-0.09472 3.29142,-0.13335 4.89215,-0.08837 9.48531,0.266435 19.49979,-0.438679 28.9216,0.09763 11.31623,0.644525 18.89125,11.28051 17.44398,22.214681 -0.82285,6.220354 -3.55335,9.576858 -8.26558,13.341614 12.24491,7.004315 13.51227,23.533105 3.33375,32.562005 -2.7305,2.40453 -6.05102,4.04151 -9.6229,4.74398 -3.55335,0.71649 -16.54704,0.54266 -20.77508,0.44979 -8.85031,-0.19447 -19.40719,0.33285 -28.0961,-0.14076 2.51618,-3.83778 4.91595,-7.75044 7.19402,-11.73241 0.64293,-1.28429 1.2065,-2.21377 1.95262,-3.4208 10.61244,-0.42889 21.54502,0.48022 32.10454,-0.28734 6.84213,-0.49742 7.58296,-12.68704 0.25136,-13.89698 -3.05859,-0.50482 -6.67279,-0.24976 -9.8134,-0.23812 -5.98223,0.0458 -11.96181,0.0587 -17.94404,0.0392 -0.2249,-3.38508 0.0106,-11.165418 0.0979,-14.644954 8.64129,-0.819414 19.10027,0.731044 27.79712,-0.488685 3.05594,-0.428096 5.55096,-5.148527 4.57729,-8.241242 -2.19869,-6.99426 -8.60954,-5.099314 -14.27691,-5.35305 -4.97946,-0.503237 -28.44271,1.051455 -31.39017,-0.547422 l -0.0582,-0.494507 c 1.29646,-2.331773 9.5541,-11.572345 11.67606,-13.87422 z"
         id="path7"
         style="display:block;fill:url(#svgi_r_1e___Gradient2);stroke-width:0.264583" />
      <path
         fill="#07142e"
         d="m 158.17047,79.375536 c 0.48154,-0.03281 0.96414,-0.05371 1.44674,-0.06244 l 18.11813,-0.0336 c 4.77044,-0.0042 10.13884,-0.401373 14.77434,0.610394 16.64229,3.632729 14.74787,18.294349 14.76639,31.05758 l 0.0423,24.37791 c -2.54794,0.0767 -13.61282,0.23443 -15.44638,-0.3048 -0.60325,-0.79031 -0.61648,-3.30808 -0.68791,-4.44685 -8.41111,5.8039 -13.69484,4.70429 -23.46855,4.79346 -4.30212,0.0394 -6.72465,0.0579 -10.94237,-1.12951 -6.60373,-2.61064 -10.72674,-7.61127 -11.02624,-14.45657 -0.70671,-16.15704 10.59841,-18.56978 23.59845,-18.06098 6.09864,0.23865 15.39875,0.28866 21.31218,-0.0323 -0.0185,-0.87154 -0.0476,-1.742544 -0.0873,-2.613288 -0.40216,-7.995179 -9.06462,-5.325798 -14.22664,-5.826654 -3.34698,-0.324644 -28.02123,0.729192 -29.31504,-0.449791 0.16457,-1.540669 9.40382,-11.295063 11.14187,-13.422577 z m 29.0449,42.477004 c 3.46075,-2.03385 3.37343,-4.55904 3.37872,-8.2767 -7.98247,-0.006 -17.06827,-0.2532 -24.96608,-0.0532 -5.27553,2.8493 -3.13796,8.44682 0.0609,8.72225 4.19364,0.36116 18.13189,0.90012 21.5265,-0.39237 z"
         id="path8"
         style="display:block;stroke-width:0.264583" />
      <path
         fill="url(#svgi_r_1e___Gradient1)"
         d="m -66.321346,96.278971 c -0.04366,1.366044 -0.09604,4.392349 0.05345,5.659969 l 0.180446,-1.23243 0.222779,-0.0302 0.393171,1.70682 c 0.205581,-1.74731 0.132821,-5.375272 1.187979,-6.344176 1.122362,0.288925 1.475317,1.12395 2.729971,1.9685 l 0.421216,-0.102923 c 0.386557,-0.800365 0.24474,-2.386542 0.227542,-3.356504 0.594519,-0.998802 1.734608,-0.871273 1.998133,-1.505215 0.688182,-1.655762 2.525713,-8.592079 3.83249,-9.367043 0.589756,0.497152 0.448998,0.598752 0.635,1.486693 1.065477,-1.684602 -1.369748,-12.010231 1.433512,-14.078214 l 0.45429,0.5588 c -0.410369,1.246716 -0.849313,2.657739 -0.849048,3.980656 0.0011,14.28406 0.01058,28.578706 -0.01799,42.864876 -0.0016,0.81386 0.305065,3.42213 0.69268,3.9931 2.661708,3.91768 8.576997,6.83074 12.54416,9.17416 4.782608,2.83713 9.58215,5.64541 14.398625,8.42486 5.027877,2.89243 10.11211,6.29761 15.475479,8.40661 1.8314454,0.75247 3.6980808,0.3257 5.3953828,-0.5805 12.8013353,-6.83286 25.5055682,-14.31687 37.8788082,-21.89956 5.47661,-3.35624 1.275027,-22.30173 3.248289,-25.1886 1.630627,-0.21563 11.861271,7.22286 13.494015,8.71379 0.125677,4.86489 0.09287,9.75968 0.05979,14.62908 -0.06773,10.03829 -9.981141,13.69562 -17.77312,18.20518 l -16.554185,9.63666 -11.9663106,6.84794 c -3.83169578,2.19604 -7.0201895,4.71593 -11.6009207,4.84637 -2.4304627,0.0511 -4.8410807,-0.44582 -7.0532627,-1.45388 -2.695839,-1.23111 -6.415881,-3.55468 -9.042135,-5.11069 l -14.823546,-8.79687 -14.412383,-8.31903 c -8.427243,-4.85484 -14.005718,-6.73867 -13.970793,-17.70724 0.02805,-8.78602 0.116681,-17.77047 0.06165,-26.557815 z"
         id="path9"
         style="display:block;fill:url(#svgi_r_1e___Gradient1);stroke-width:0.264583" />
      <path
         fill="#2643f1"
         d="m -45.35444,49.774217 c 3.82614,-2.829718 11.984567,-7.091891 16.289073,-9.547754 7.773987,-4.434946 17.6022,-12.924895 26.6514786,-8.091487 15.5384494,8.672777 30.4125314,17.72232 45.6972454,26.756518 9.718939,5.74675 5.640916,18.639367 6.407944,27.999267 0.13626,1.663435 -11.397457,9.061185 -13.373365,9.423399 L 36.036155,96.127894 C 35.50249,92.145121 35.902276,84.340442 35.916828,80.07774 35.952017,69.76534 34.504217,69.986532 26.011622,64.975059 L 14.436101,58.142459 1.9303053,50.778576 c -2.3611416,-1.386417 -4.7423916,-2.992702 -7.255404,-4.075642 -1.3485813,-0.581025 -3.175,-0.905933 -4.6405271,-0.694796 -1.3043962,0.188119 -2.6474212,0.899054 -3.8031212,1.514211 -3.484033,1.854464 -36.876566,21.397383 -37.565541,22.369462 -0.414866,0.585258 -0.762529,1.190625 -1.217083,1.751277 l -0.45429,-0.5588 c -2.80326,2.067983 -0.368035,12.393612 -1.433512,14.078214 -0.186002,-0.887941 -0.04524,-0.989541 -0.635,-1.486693 -1.306777,0.774964 -3.144308,7.711281 -3.83249,9.367043 -0.263525,0.633942 -1.403614,0.506413 -1.998133,1.505215 0.0172,0.969962 0.159015,2.556139 -0.227542,3.356504 l -0.421216,0.102923 c -1.254654,-0.84455 -1.607609,-1.679575 -2.729971,-1.9685 -1.055158,0.968904 -0.982398,4.596866 -1.187979,6.344176 l -0.393171,-1.70682 -0.222779,0.0302 -0.180446,1.23243 c -0.14949,-1.26762 -0.0971,-4.293925 -0.05345,-5.659969 l -1.044839,-0.526786 c 0.0127,-5.320506 -0.496623,-25.438893 0.643731,-29.204178 0.656696,-2.198159 1.858433,-4.194704 3.493029,-5.804694 2.528358,-2.492904 14.20151,-8.961437 17.874985,-10.969096 z"
         id="path10"
         style="display:block;stroke-width:0.264583" />
      <path
         fill="#2643f1"
         d="m 217.54984,61.90748 14.07584,-0.0019 c 2.32304,0.0048 6.86593,-0.121444 8.96408,0.358245 0.36777,0.532077 0.41804,2.101057 0.42598,2.809611 0.25929,19.345804 0.045,38.694784 0.11906,58.042174 0.0159,3.96954 0.12171,8.12085 -0.0741,12.06685 -3.53483,0.13996 -7.80521,0.036 -11.39561,0.0413 -2.23572,0.0138 -4.24127,0.002 -6.47435,-0.10451 -0.1905,-4.56009 -0.0609,-10.35711 -0.0953,-15.05902 l 0.0212,-43.111206 c -4.21746,-0.0079 -12.5095,0.06932 -17.09473,-0.169069 -0.13494,-0.126471 -0.26988,-0.252941 -0.40481,-0.379412 l 0.0185,-0.538163 c 0.84931,-1.404673 10.90877,-13.333412 11.91418,-13.954918 z"
         id="path11"
         style="display:block;stroke-width:0.264583" />
      <path
         fill="#07142e"
         d="m 358.33463,110.10107 c 4.67255,-0.32914 15.97555,-0.82021 19.30665,1.96056 8.44285,7.05141 5.35252,21.18757 -6.10394,23.01346 -3.23321,0.0704 -4.42912,-0.008 -7.55385,-0.78264 l 0.0265,9.41388 c -0.99484,0.0759 -1.99232,0.13123 -2.99244,0.16563 -1.24619,0.0347 -2.84163,0.14261 -3.78354,-0.74825 -0.17463,-1.7862 -0.20902,-3.60918 -0.18256,-5.40755 0.1217,-8.64314 0.0344,-17.27756 0,-25.917 -0.005,-0.73871 0.74612,-1.27423 1.28322,-1.69809 z m 5.6859,18.35864 c 3.18029,0.5125 6.11452,1.25624 8.89794,-0.7575 0.10583,-0.0759 0.20902,-0.15346 0.31221,-0.23204 2.30981,-3.08187 2.62995,-8.01846 -0.63765,-10.52724 -2.07698,-1.59438 -6.0325,-1.11813 -8.55927,-1.05093 z"
         id="path12"
         style="display:block;stroke-width:0.264583" />
      <path
         fill="#07142e"
         d="m 387.45997,110.1098 c 4.11162,-0.46223 16.07608,-0.82365 19.22991,2.04946 7.84755,7.1546 5.09323,21.36828 -6.69131,22.93382 -3.08239,0.0791 -4.22275,-0.0955 -7.13581,-0.82232 -0.0423,2.35637 0.56356,7.55332 -0.46567,8.9281 -1.64835,1.19485 -4.35239,0.6768 -6.46377,0.54715 0.1905,-10.62169 -0.15875,-21.60878 0.22754,-32.23789 0.0238,-0.64214 0.7964,-1.07368 1.29911,-1.39832 z m 5.50068,18.6219 c 3.02948,0.21511 6.19125,0.79905 8.80534,-0.76596 2.74902,-2.81888 2.75166,-7.29536 0.5715,-10.45475 -3.36286,-1.96056 -5.17261,-1.64994 -9.02494,-1.54384 -0.41804,0.90699 -0.42069,11.08657 -0.3519,12.76455 z"
         id="path13"
         style="display:block;stroke-width:0.264583" />
      <path
         fill="#07142e"
         d="m 331.22013,110.08546 c 3.25173,-0.39132 7.38188,-0.0873 10.541,-0.12118 10.7315,-0.11509 11.31359,6.22803 10.87438,14.97356 -0.1561,3.08055 -0.0476,7.1255 -0.14023,10.28198 -1.75683,0.0979 -4.24656,0.3175 -6.01133,0.10027 -0.59267,-0.0728 -0.7329,-0.86757 -1.13507,-1.59411 -5.3922,1.35202 -3.39989,1.9685 -10.40341,1.43272 -0.1905,-0.0267 -0.37836,-0.0564 -0.56621,-0.0892 -5.3631,-0.93768 -7.93221,-4.65137 -6.88446,-10.18593 1.38377,-7.31837 12.96458,-4.25291 17.7509,-5.68034 0.25135,-0.0754 0.23812,-0.5662 0.26987,-0.80327 -0.36248,-1.17078 -1.58485,-2.5019 -2.85485,-2.5363 -4.41854,-0.11959 -8.82915,0.12568 -13.26356,-0.0709 -0.15082,-2.66383 -0.71438,-4.17487 1.82297,-5.70733 z m 12.30578,19.31511 c 2.09814,-1.32265 1.70391,-2.19392 1.62718,-4.53998 l -9.36096,0.0344 c -4.6937,5.53747 4.61963,4.91278 7.73378,4.50559 z"
         id="path14"
         style="display:block;stroke-width:0.264583" />
      <path
         fill="#07142e"
         d="m 317.88249,126.62086 c 1.47637,-0.67866 3.2041,-0.51171 4.52437,0.43656 1.31763,0.94853 2.02671,2.53259 1.85473,4.14867 -0.17198,1.61581 -1.20121,3.01439 -2.69081,3.66289 -2.27012,0.98822 -4.91596,-0.0368 -5.92667,-2.29817 -1.0107,-2.2614 -0.0132,-4.91543 2.23838,-5.94995 z"
         id="path15"
         style="display:block;stroke-width:0.264583" />
    </g>
  </g>
</svg>
